<?xml version="1.0" standalone="no"?>
<!DOCTYPE svg PUBLIC "-//W3C//DTD SVG 20010904//EN"
 "http://www.w3.org/TR/2001/REC-SVG-20010904/DTD/svg10.dtd">
<svg version="1.0" xmlns="http://www.w3.org/2000/svg"
 width="225.000000pt" height="225.000000pt" viewBox="0 0 225.000000 225.000000"
 preserveAspectRatio="xMidYMid meet">

<g transform="translate(0.000000,225.000000) scale(0.100000,-0.100000)"
fill="#000000" stroke="none">
<path d="M0 1688 l0 -563 558 558 c306 306 562 557 567 557 13 0 1115 -1102
1115 -1115 0 -5 -251 -261 -557 -567 l-558 -558 563 0 562 0 0 1125 0 1125
-1125 0 -1125 0 0 -562z"/>
<path d="M964 1796 c-141 -40 -258 -108 -343 -201 -289 -317 -229 -811 127
-1045 374 -246 883 -71 1029 354 25 73 28 94 28 221 0 127 -3 148 -28 221 -69
200 -227 359 -429 431 -61 21 -95 26 -203 29 -92 3 -145 0 -181 -10z m346 -85
c186 -58 343 -217 403 -406 31 -98 31 -261 0 -360 -29 -91 -85 -183 -155 -254
-295 -297 -798 -214 -983 162 -175 355 30 785 415 872 86 20 234 13 320 -14z"/>
<path d="M906 1444 c-3 -26 -6 -61 -6 -77 0 -50 18 -18 22 38 l3 50 18 -52
c10 -29 22 -55 27 -58 4 -2 18 23 31 58 l24 62 3 -55 c3 -59 22 -96 22 -43 0
59 -13 123 -25 123 -6 0 -19 -25 -29 -55 -9 -30 -19 -55 -21 -55 -2 0 -12 25
-21 55 -10 30 -23 55 -29 55 -7 0 -15 -21 -19 -46z"/>
<path d="M1080 1437 c0 -61 20 -97 55 -97 40 0 55 25 55 91 0 33 -4 59 -10 59
-6 0 -10 -27 -10 -60 0 -48 -4 -61 -19 -70 -32 -16 -51 12 -51 76 0 30 -4 54
-10 54 -5 0 -10 -24 -10 -53z"/>
<path d="M1260 1429 c0 -52 -3 -62 -20 -66 -23 -6 -27 -23 -6 -23 31 0 46 30
46 91 0 33 -4 59 -10 59 -6 0 -10 -27 -10 -61z"/>
<path d="M635 1271 c-25 -5 -31 -12 -33 -37 l-3 -31 78 1 c65 1 78 -2 81 -15
2 -13 -8 -18 -50 -24 -95 -13 -128 -41 -128 -110 0 -71 81 -109 150 -70 30 17
44 19 35 5 -4 -6 12 -10 39 -10 l46 0 0 118 c0 89 -4 123 -15 139 -26 37 -116
52 -200 34z m125 -196 c0 -29 -4 -36 -27 -41 -30 -8 -56 5 -62 31 -4 24 25 45
61 45 25 0 28 -3 28 -35z"/>
<path d="M985 1265 c-73 -26 -106 -98 -85 -185 12 -51 38 -82 83 -99 35 -14
107 -14 141 -1 22 8 26 16 26 49 l0 39 -37 -19 c-41 -21 -76 -18 -105 8 -23
21 -24 100 -2 131 18 26 79 30 110 7 29 -22 34 -18 34 25 0 37 -2 40 -37 49
-50 14 -80 13 -128 -4z"/>
<path d="M1333 1261 c-27 -17 -33 -18 -33 -6 0 11 -12 15 -45 15 l-45 0 0
-145 0 -145 45 0 44 0 3 108 3 107 35 0 35 0 3 -107 3 -108 49 0 49 0 3 108 3
107 35 0 35 0 3 -107 3 -108 44 0 45 0 0 115 c0 123 -9 157 -47 174 -36 17
-56 14 -97 -14 l-37 -25 -17 20 c-25 30 -80 35 -119 11z"/>
<path d="M840 815 c0 -88 1 -95 20 -95 17 0 20 7 20 51 0 43 3 50 18 47 13 -2
18 -15 20 -51 3 -39 6 -47 23 -47 16 0 19 7 19 54 0 61 -15 81 -55 74 -23 -5
-25 -2 -25 28 0 27 -4 34 -20 34 -19 0 -20 -7 -20 -95z"/>
<path d="M710 882 c-15 -12 -24 -33 -27 -64 -5 -40 -2 -50 20 -72 20 -20 36
-26 72 -26 33 0 45 4 45 15 0 10 -10 15 -34 15 -25 0 -39 7 -50 22 -34 48 -7
98 52 98 22 0 32 5 32 15 0 22 -81 20 -110 -3z"/>
<path d="M1293 883 c-7 -2 -13 -11 -13 -18 0 -7 -6 -15 -12 -18 -10 -4 -10 -7
0 -18 6 -7 12 -29 12 -49 0 -42 14 -60 47 -60 26 0 32 25 8 34 -9 3 -15 18
-15 36 0 20 5 30 15 30 8 0 15 7 15 15 0 8 -7 15 -15 15 -8 0 -15 9 -15 20 0
20 -5 23 -27 13z"/>
<path d="M990 835 c0 -11 7 -13 29 -9 16 4 32 1 35 -5 4 -7 -1 -11 -12 -11
-11 0 -30 -8 -42 -18 -18 -14 -21 -25 -16 -45 6 -25 10 -26 62 -26 l56 1 -4
55 c-5 62 -16 73 -70 73 -27 0 -38 -4 -38 -15z m68 -67 c-7 -19 -38 -22 -38
-4 0 10 9 16 21 16 12 0 19 -5 17 -12z"/>
<path d="M1120 759 c0 -82 1 -89 20 -89 15 0 20 7 20 28 0 26 3 28 33 24 41
-5 61 16 61 63 0 50 -17 64 -80 64 l-54 -1 0 -89z m88 29 c-2 -25 -8 -33 -23
-33 -20 0 -31 25 -21 51 3 8 15 14 26 14 18 0 21 -5 18 -32z"/>
<path d="M1377 832 c-22 -25 -21 -75 1 -95 24 -22 92 -23 92 -2 0 10 -10 15
-29 15 -17 0 -33 5 -36 10 -4 6 10 10 34 10 35 0 41 3 41 21 0 11 -5 29 -10
40 -14 25 -71 26 -93 1z m61 -20 c2 -7 -6 -12 -17 -12 -21 0 -27 11 -14 24 9
9 26 2 31 -12z"/>
<path d="M1500 784 c0 -57 2 -64 20 -64 17 0 20 7 20 44 0 36 4 46 20 51 36
11 23 32 -20 32 l-40 0 0 -63z"/>
<path d="M0 560 l0 -560 562 0 563 0 -560 560 c-308 308 -561 560 -562 560 -2
0 -3 -252 -3 -560z"/>
</g>
</svg>
